<?xml version="1.0" encoding="UTF-8"?>
<svg version="1.1" xmlns="http://www.w3.org/2000/svg" width="500" height="500">
<path d="M0 0 C165 0 330 0 500 0 C500 165 500 330 500 500 C335 500 170 500 0 500 C0 335 0 170 0 0 Z " fill="#0E0E0E" transform="translate(0,0)"/>
<path d="M0 0 C1.20863205 -0.0159874 2.4172641 -0.03197479 3.66252136 -0.04844666 C4.96151871 -0.05380936 6.26051605 -0.05917206 7.59887695 -0.06469727 C8.95783073 -0.07367598 10.31678357 -0.08279803 11.67573547 -0.09205627 C14.52278027 -0.10851894 17.36970791 -0.11624079 20.21679688 -0.11914062 C23.84035012 -0.12450735 27.46277949 -0.16212562 31.08601665 -0.20788479 C33.89414844 -0.23784269 36.70201638 -0.24486826 39.51029396 -0.24586678 C41.48766106 -0.25204505 43.46491265 -0.28142333 45.44206238 -0.31138611 C54.55308409 -0.26616017 61.30124507 1.41543153 68.3371582 7.36889648 C69.1105957 8.32795898 69.1105957 8.32795898 69.8996582 9.30639648 C70.4359082 9.94577148 70.9721582 10.58514648 71.5246582 11.24389648 C74.42933248 15.60090789 75.14620805 19.28158739 75.0949707 24.48217773 C75.08852539 25.63911133 75.08208008 26.79604492 75.07543945 27.98803711 C75.05030273 29.7853125 75.05030273 29.7853125 75.0246582 31.61889648 C75.01563477 32.83641602 75.00661133 34.05393555 74.99731445 35.30834961 C74.97378857 38.30789923 74.94091473 41.30704692 74.8996582 44.30639648 C75.89819824 44.2802124 76.89673828 44.25402832 77.92553711 44.22705078 C81.64893979 44.13618975 85.37224558 44.07901878 89.09643555 44.03173828 C90.70467639 44.00667521 92.31280423 43.97261477 93.9206543 43.92919922 C96.23946059 43.868178 98.55675485 43.84010685 100.8762207 43.81811523 C101.58896149 43.79230881 102.30170227 43.76650238 103.03604126 43.73991394 C106.89686325 43.73777053 109.36709498 44.29031178 112.35424805 46.64941406 C114.8996582 49.30639648 114.8996582 49.30639648 115.6496582 52.30639648 C114.79141011 55.73938884 113.45039113 57.09770059 110.70550537 59.26547241 C107.58262332 61.06556001 104.36433255 60.92097288 100.8762207 60.79467773 C100.13004486 60.787603 99.38386902 60.78052826 98.61508179 60.77323914 C96.25055229 60.74542825 93.8884619 60.68272448 91.5246582 60.61889648 C89.91401552 60.59379598 88.30333541 60.57098588 86.69262695 60.55053711 C82.76070908 60.49564659 78.83059598 60.40947497 74.8996582 60.30639648 C74.94678955 61.17421753 74.94678955 61.17421753 74.99487305 62.05957031 C75.96273247 82.58268236 75.96273247 82.58268236 70.88793945 90.20092773 C66.43257484 94.91888751 60.08709327 99.11251445 53.44775391 99.41992188 C52.02595825 99.41206665 52.02595825 99.41206665 50.57543945 99.40405273 C49.54741211 99.40083008 48.51938477 99.39760742 47.46020508 99.39428711 C46.38834961 99.3859082 45.31649414 99.3775293 44.2121582 99.36889648 C42.58697266 99.36212891 42.58697266 99.36212891 40.92895508 99.35522461 C38.25246735 99.34343391 35.57609043 99.32697712 32.8996582 99.30639648 C32.92060547 100.12841553 32.94155273 100.95043457 32.96313477 101.79736328 C33.04639129 105.52941612 33.09835067 109.26127342 33.1496582 112.99389648 C33.18317383 114.2874707 33.21668945 115.58104492 33.2512207 116.91381836 C33.26411133 118.16098633 33.27700195 119.4081543 33.2902832 120.69311523 C33.31123047 121.83997803 33.33217773 122.98684082 33.35375977 124.16845703 C32.79930479 127.99986013 31.65997942 129.6323737 28.8996582 132.30639648 C25.3996582 132.93139648 25.3996582 132.93139648 21.8996582 132.30639648 C19.13933699 129.6323737 18.00001161 127.99986013 17.44555664 124.16845703 C17.46650391 123.02159424 17.48745117 121.87473145 17.5090332 120.69311523 C17.52192383 119.44594727 17.53481445 118.1987793 17.5480957 116.91381836 C17.58161133 115.62024414 17.61512695 114.32666992 17.6496582 112.99389648 C17.66770508 111.68098633 17.68575195 110.36807617 17.7043457 109.01538086 C17.75143035 105.7783116 17.81718779 102.54272596 17.8996582 99.30639648 C16.88766357 99.34567261 16.88766357 99.34567261 15.85522461 99.38574219 C12.7452807 99.49082584 9.63571173 99.55507065 6.5246582 99.61889648 C5.46375977 99.66079102 4.40286133 99.70268555 3.30981445 99.74584961 C-4.19264106 99.86091795 -9.89019971 98.67574253 -16.1003418 94.30639648 C-21.79996674 88.37973194 -24.33133588 82.36173186 -24.39086914 74.07666016 C-24.40362885 72.86487595 -24.41638855 71.65309174 -24.42953491 70.40458679 C-24.43176056 69.10761368 -24.43398621 67.81064056 -24.4362793 66.47436523 C-24.44271622 65.11444461 -24.44944523 63.75452535 -24.45645142 62.39460754 C-24.46839436 59.54933465 -24.47213539 56.70418289 -24.47094727 53.85888672 C-24.47074437 50.2342984 -24.49802796 46.61049675 -24.53249168 42.98609447 C-24.5548622 40.17800922 -24.55878172 37.37011016 -24.55772781 34.56194496 C-24.56119853 32.58291933 -24.58279758 30.60395183 -24.60482788 28.62504578 C-24.5626808 20.26009241 -23.80104447 13.27190794 -17.91674805 6.96655273 C-17.17295898 6.43932617 -16.42916992 5.91209961 -15.6628418 5.36889648 C-14.55102539 4.55098633 -14.55102539 4.55098633 -13.41674805 3.71655273 C-8.91886434 0.97838069 -5.26305655 0.0528203 0 0 Z " fill="#F4F4F4" transform="translate(131.100341796875,113.693603515625)"/>
<path d="M0 0 C1.19176346 -0.0127597 2.38352692 -0.02551941 3.61140442 -0.03866577 C5.52405342 -0.04200424 5.52405342 -0.04200424 7.4753418 -0.04541016 C8.81284219 -0.05184738 10.15034121 -0.05857642 11.48783875 -0.06558228 C14.28603373 -0.0775242 17.08410557 -0.08126636 19.88232422 -0.08007812 C23.44638391 -0.07987524 27.0096435 -0.1071582 30.57351398 -0.14162254 C33.33527667 -0.16399665 36.09685009 -0.16791247 38.85869408 -0.16685867 C40.80448199 -0.17032838 42.75021082 -0.19192513 44.69587708 -0.21395874 C54.91827628 -0.16159441 62.55220342 1.98067022 69.86206055 9.29052734 C75.08971837 15.98715342 74.48171928 23.12073108 74.46362305 31.31396484 C74.47141009 32.78456093 74.48008211 34.25515258 74.48959351 35.72573853 C74.50446957 38.80054332 74.50397185 41.87488868 74.4934082 44.94970703 C74.48182951 48.86950159 74.51567045 52.78740262 74.56209755 56.70688438 C74.59171784 59.74236852 74.59329633 62.77740428 74.58707809 65.81300735 C74.58809747 67.25697197 74.59843966 68.70096404 74.61870193 70.14478683 C74.74503276 80.40533245 73.37603488 86.50018132 66.28053284 93.95132446 C60.8739657 99.05575289 53.99922648 99.73287531 46.89526367 99.64208984 C45.87368164 99.60857422 44.85209961 99.57505859 43.79956055 99.54052734 C42.74317383 99.52248047 41.68678711 99.50443359 40.59838867 99.48583984 C38.01863505 99.43914747 35.44085237 99.37368323 32.86206055 99.29052734 C32.88300781 100.41547607 32.90395508 101.5404248 32.92553711 102.69946289 C32.99807577 106.88325208 33.04391045 111.06698596 33.08178711 115.2512207 C33.10187107 117.06023514 33.12914395 118.86918491 33.16381836 120.67797852 C33.21247947 123.28206356 33.23506106 125.88528849 33.25268555 128.48974609 C33.27333069 129.29514328 33.29397583 130.10054047 33.31524658 130.93034363 C33.31680699 134.85769714 33.13606808 136.83874024 31.05249023 140.27416992 C28.00556991 143.07895313 25.96612116 143.36252841 21.86206055 143.29052734 C19.16992188 141.85791016 19.16992188 141.85791016 16.86206055 139.29052734 C16.17000097 136.23783691 16.27964066 133.26630449 16.3737793 130.14990234 C16.38085403 129.26772034 16.38792877 128.38553833 16.3952179 127.47662354 C16.42316877 124.66372254 16.48590673 121.85282483 16.54956055 119.04052734 C16.5746426 117.13170196 16.59745594 115.22284532 16.61791992 113.31396484 C16.67299756 108.63871583 16.75927361 103.96496101 16.86206055 99.29052734 C15.88765015 99.32194824 15.88765015 99.32194824 14.89355469 99.35400391 C11.90405221 99.43798317 8.91479896 99.48944334 5.92456055 99.54052734 C4.90297852 99.57404297 3.88139648 99.60755859 2.82885742 99.64208984 C-5.1154506 99.74361455 -11.32836791 98.54678883 -17.4777832 93.29052734 C-18.00500977 92.63052734 -18.53223633 91.97052734 -19.07543945 91.29052734 C-19.62071289 90.63052734 -20.16598633 89.97052734 -20.7277832 89.29052734 C-23.72547551 85.03895266 -24.3980877 82.0790812 -24.46020508 76.82885742 C-24.48902771 74.86079887 -24.48902771 74.86079887 -24.51843262 72.85298157 C-24.52813165 71.42201436 -24.53668856 69.99103902 -24.54418945 68.56005859 C-24.55570444 67.08517964 -24.56721975 65.6103007 -24.57873535 64.13542175 C-24.59972827 61.0428224 -24.61142999 57.95032655 -24.6184082 54.85766602 C-24.62934886 50.91437086 -24.67734719 46.97246711 -24.73435211 43.02960682 C-24.77180099 39.98131971 -24.7820264 36.93336051 -24.78507996 33.8848629 C-24.79109432 32.4324861 -24.80702004 30.98011238 -24.83345032 29.52796364 C-25.00268682 19.51145526 -23.69758685 13.08328825 -16.62878418 5.71809387 C-11.71544538 1.21927906 -6.50049947 0.04750547 0 0 Z " fill="#F7F6F6" transform="translate(319.137939453125,113.70947265625)"/>
<path d="M0 0 C1.41907344 -0.00405332 2.83814279 -0.009886 4.25720215 -0.01739502 C7.21598389 -0.02618716 10.1736709 -0.01356197 13.13232422 0.01464844 C16.89850777 0.0488356 20.66212532 0.02912287 24.42821503 -0.00678635 C27.35401253 -0.02861394 30.27921556 -0.0215017 33.20503235 -0.00601959 C34.59231379 -0.00205708 35.97965173 -0.00678623 37.36686707 -0.02089691 C46.39042312 -0.09257246 53.10875572 0.84848221 60.15625 6.796875 C64.83979534 12.04457135 67.27723924 15.70685599 67.30151367 22.80371094 C67.30789352 24.06552185 67.31427338 25.32733276 67.32084656 26.62738037 C67.32237566 28.01200319 67.32348939 29.39662653 67.32421875 30.78125 C67.32743192 32.19891392 67.33079604 33.6165775 67.33430481 35.03424072 C67.34029909 38.01013965 67.34214452 40.98600952 67.34155273 43.96191406 C67.34145137 47.76602662 67.35507574 51.56995146 67.37232494 55.37401962 C67.38347486 58.30463507 67.38547099 61.23520567 67.38494301 64.16584015 C67.38611969 65.56759536 67.3905239 66.96935185 67.39827538 68.37108612 C67.40813034 70.3381864 67.40391883 72.30534171 67.39916992 74.27246094 C67.40059494 75.39005798 67.40201996 76.50765503 67.40348816 77.65911865 C66.85683851 84.59677503 63.94795913 89.87934419 59.15625 94.796875 C53.83193337 98.30951489 48.69368196 99.91683781 42.32714844 99.95800781 C41.128703 99.96761536 39.93025757 99.9772229 38.69549561 99.98712158 C37.39863831 99.99137146 36.10178101 99.99562134 34.765625 100 C33.41904703 100.00575555 32.07246907 100.01151323 30.72589111 100.01727295 C27.90140401 100.02777499 25.07694528 100.03362236 22.25244141 100.03710938 C18.64678481 100.04258217 15.0415081 100.06658698 11.43597031 100.09508133 C8.65286188 100.11378081 5.86984347 100.11891724 3.08667755 100.12044525 C1.11533731 100.12491561 -0.85595462 100.1435292 -2.82720947 100.16241455 C-11.93081026 100.13985503 -18.30015451 99.0504241 -25.0871582 92.64428711 C-30.95991732 86.46789125 -32.40625802 80.51148445 -32.28320312 72.11914062 C-32.22036133 70.44368164 -32.22036133 70.44368164 -32.15625 68.734375 C-32.13369141 67.58259766 -32.11113281 66.43082031 -32.08789062 65.24414062 C-32.02944367 62.42699751 -31.94756471 59.61264936 -31.84375 56.796875 C-32.84752686 56.81782227 -33.85130371 56.83876953 -34.88549805 56.86035156 C-38.62200566 56.93294194 -42.35845137 56.97874311 -46.09545898 57.01660156 C-47.71047458 57.03667392 -49.32541789 57.0639383 -50.94018555 57.09863281 C-53.26629501 57.14734715 -55.59144093 57.16988654 -57.91796875 57.1875 C-58.63587082 57.20814514 -59.35377289 57.22879028 -60.09342957 57.25006104 C-63.73628743 57.25167878 -65.68860457 56.89735211 -68.77661133 54.89746094 C-71.26303877 52.37080194 -71.77325959 51.44538678 -72.15625 47.921875 C-71.84375 44.796875 -71.84375 44.796875 -70.35449219 42.62597656 C-66.81369925 40.04647241 -63.56764498 40.29609149 -59.359375 40.40625 C-58.54378113 40.41190979 -57.72818726 40.41756958 -56.88787842 40.42340088 C-54.28923228 40.44574773 -51.69197758 40.49593878 -49.09375 40.546875 C-47.32944703 40.56694229 -45.5651224 40.58519266 -43.80078125 40.6015625 C-39.48123672 40.6456067 -35.16272907 40.71462078 -30.84375 40.796875 C-30.8751709 40.08668213 -30.9065918 39.37648926 -30.93896484 38.64477539 C-31.06476317 35.38330783 -31.14206 32.12235206 -31.21875 28.859375 C-31.26902344 27.74240234 -31.31929688 26.62542969 -31.37109375 25.47460938 C-31.51089711 17.52911821 -30.36789071 12.60361275 -24.84375 6.796875 C-17.14029068 0.37849091 -9.70409777 -0.09870956 0 0 Z " fill="#F8F7F7" transform="translate(325.84375,287.203125)"/>
<path d="M0 0 C2.24775686 1.68256944 2.93468816 2.54740532 3.34057617 5.36010742 C3.3170105 6.71906128 3.3170105 6.71906128 3.29296875 8.10546875 C3.2784668 9.57983398 3.2784668 9.57983398 3.26367188 11.08398438 C3.23853516 12.10814453 3.21339844 13.13230469 3.1875 14.1875 C3.16719727 15.74114258 3.16719727 15.74114258 3.14648438 17.32617188 C3.11111389 19.88463699 3.06175544 22.4420578 3 25 C3.70495605 24.9685791 4.40991211 24.9371582 5.13623047 24.90478516 C8.38215021 24.77877648 11.62755382 24.70162513 14.875 24.625 C15.98359375 24.57472656 17.0921875 24.52445312 18.234375 24.47265625 C26.3376046 24.32965808 31.66451854 25.85707976 38 31 C40.25390625 33.44921875 40.25390625 33.44921875 41.5625 35.6875 C42.01753906 36.43386719 42.47257812 37.18023437 42.94140625 37.94921875 C44.89832222 41.74029212 45.14300405 44.77232721 45.19287109 48.98095703 C45.20893402 50.21298859 45.22499695 51.44502014 45.24154663 52.71438599 C45.25303789 54.06218776 45.26364579 55.40999731 45.2734375 56.7578125 C45.27876118 57.43887936 45.28408485 58.11994621 45.28956985 58.82165146 C45.31628214 62.43056867 45.33565821 66.03945162 45.35009766 69.6484375 C45.36340282 72.62238558 45.39119262 75.59564194 45.43212891 78.56933594 C45.48170733 82.17147449 45.50624953 85.77298884 45.51332474 89.37545395 C45.51999788 90.74129937 45.53511641 92.10713303 45.55921555 93.47278214 C45.72335396 103.34168762 44.44447939 109.77991538 38.0078125 117.33984375 C37.38648438 117.86707031 36.76515625 118.39429688 36.125 118.9375 C35.50882812 119.48277344 34.89265625 120.02804687 34.2578125 120.58984375 C27.29946372 124.93580207 19.43420794 124.32180252 11.5078125 124.3359375 C9.557043 124.3459227 9.557043 124.3459227 7.56686401 124.35610962 C4.82172321 124.36803768 2.07670783 124.37179503 -0.66845703 124.37060547 C-4.16411259 124.3704024 -7.65895411 124.3977109 -11.15441704 124.43214989 C-14.51701757 124.45990092 -17.87947421 124.45857135 -21.2421875 124.4609375 C-23.10821121 124.48249405 -23.10821121 124.48249405 -25.01193237 124.50448608 C-33.70367526 124.45908384 -40.1527107 123.26183223 -46.875 117.5625 C-51.63398312 111.82372624 -54.23581542 106.47812956 -54.29052734 98.97558594 C-54.30328705 97.78374695 -54.31604675 96.59190796 -54.32919312 95.36395264 C-54.33141876 94.08369202 -54.33364441 92.8034314 -54.3359375 91.484375 C-54.34237261 90.14544536 -54.3491015 88.8065171 -54.35610962 87.46759033 C-54.3680641 84.66341904 -54.37179252 81.85937074 -54.37060547 79.05517578 C-54.37040278 75.48324038 -54.39766006 71.91210506 -54.43214989 68.34035873 C-54.45452707 65.5743049 -54.45843968 62.80844002 -54.45738602 60.04230499 C-54.46085703 58.09208772 -54.48245677 56.14192943 -54.50448608 54.1918335 C-54.45984671 45.45405869 -52.84120159 39.6301063 -48.3125 32.25 C-43.10483535 27.18308305 -37.97179348 24.70078404 -30.65234375 24.51171875 C-28.41353635 24.54454584 -26.17497478 24.60357856 -23.9375 24.6875 C-22.78572266 24.71005859 -21.63394531 24.73261719 -20.44726562 24.75585938 C-17.63012251 24.81430633 -14.81577436 24.89618529 -12 25 C-12.01571045 24.12263184 -12.01571045 24.12263184 -12.03173828 23.22753906 C-12.07340264 20.56840337 -12.09935901 17.90933647 -12.125 15.25 C-12.14175781 14.32960938 -12.15851563 13.40921875 -12.17578125 12.4609375 C-12.18544922 11.12675781 -12.18544922 11.12675781 -12.1953125 9.765625 C-12.21102295 8.54020996 -12.21102295 8.54020996 -12.22705078 7.29003906 C-11.97439781 4.74177581 -11.36134735 3.15880181 -10 1 C-6.88450128 -0.55774936 -3.3955612 -0.56480622 0 0 Z " fill="#F6F5F5" transform="translate(161,263)"/>
<path d="M0 0 C1.20184937 -0.00004028 2.40369873 -0.00008057 3.64196777 -0.00012207 C6.18047318 0.0052343 8.71897809 0.02282163 11.25732422 0.05175781 C15.14211731 0.09359779 19.02517592 0.09282664 22.91015625 0.0859375 C25.37761621 0.09643051 27.84506724 0.1093692 30.3125 0.125 C31.47406616 0.12520142 32.63563232 0.12540283 33.83239746 0.12561035 C34.91702271 0.14152222 36.00164795 0.15743408 37.11914062 0.17382812 C38.07002563 0.18224731 39.02091064 0.1906665 40.00061035 0.19934082 C43.16708777 0.66961839 45.07341362 1.7306995 47.65625 3.59375 C48.94754734 6.17634467 48.81166859 8.08180742 48.84912109 10.97387695 C48.86518402 12.09877029 48.88124695 13.22366364 48.89779663 14.38264465 C48.94216476 19.52941091 48.98375102 24.67608801 49.00634766 29.82299805 C49.01968211 32.54013779 49.04752382 35.2565256 49.08837891 37.97338867 C49.14719168 41.8845823 49.16500963 45.79541052 49.1796875 49.70703125 C49.20235687 50.92175613 49.22502625 52.13648102 49.24838257 53.38801575 C49.23634961 58.17728223 49.18937884 61.58890022 46.92456055 65.85766602 C41.71461103 68.62512332 36.65085044 68.30648151 30.83984375 68.2578125 C28.96692406 68.26498795 28.96692406 68.26498795 27.0561676 68.27230835 C24.41847698 68.27570891 21.78310982 68.26902595 19.14575195 68.24560547 C15.77026419 68.21708596 12.39676144 68.23354629 9.02134609 68.26346779 C5.79410785 68.28590368 2.5671079 68.27018613 -0.66015625 68.2578125 C-2.47586876 68.27299423 -2.47586876 68.27299423 -4.32826233 68.28848267 C-12.42401461 68.1750384 -12.42401461 68.1750384 -16.10107422 65.85107422 C-18.11229584 60.57922374 -17.93317968 55.40749791 -17.91015625 49.8125 C-17.91635483 48.56625854 -17.92255341 47.32001709 -17.92893982 46.03601074 C-17.93785347 42.73001812 -17.92673796 39.42476879 -17.90985107 36.11883545 C-17.90625279 34.09532068 -17.92018597 32.07272195 -17.94067383 30.04931641 C-17.9775062 26.15744121 -17.9801888 22.2670158 -17.97265625 18.375 C-17.99254356 16.56702942 -17.99254356 16.56702942 -18.01283264 14.72253418 C-17.95958406 9.94423893 -17.87368892 6.5715133 -15.57592773 2.33203125 C-10.50266723 -0.39639346 -5.67187491 -0.08005733 0 0 Z " fill="#101010" transform="translate(328.34375,303.40625)"/>
<path d="M0 0 C1.62693787 -0.01902626 1.62693787 -0.01902626 3.28674316 -0.03843689 C5.02909241 -0.03403343 5.02909241 -0.03403343 6.80664062 -0.02954102 C8.00848999 -0.03478287 9.21033936 -0.04002472 10.4486084 -0.04542542 C12.98705269 -0.0518426 15.52552674 -0.05051259 18.06396484 -0.04199219 C21.94877995 -0.03347819 25.83212683 -0.06225744 29.71679688 -0.09399414 C32.18424435 -0.09560613 34.65169443 -0.09502866 37.11914062 -0.09204102 C38.28070679 -0.10327499 39.44227295 -0.11450897 40.63903809 -0.12608337 C41.72366333 -0.11670242 42.80828857 -0.10732147 43.92578125 -0.09765625 C44.87666626 -0.09749008 45.82755127 -0.09732391 46.80725098 -0.09715271 C50.35760986 0.57291531 51.9958521 1.78277498 54.46289062 4.40405273 C55.09780884 7.09802246 55.09780884 7.09802246 55.10986328 10.21069336 C55.12562408 11.37870483 55.14138489 12.54671631 55.15762329 13.75012207 C55.14750214 15.00748169 55.13738098 16.26484131 55.12695312 17.56030273 C55.13173676 18.8547229 55.13652039 20.14914307 55.14144897 21.48278809 C55.14881201 24.22003065 55.1381355 26.95645613 55.11474609 29.69360352 C55.0862558 33.19801107 55.10266323 36.70050427 55.13260841 40.20484161 C55.15504667 43.55264784 55.1393254 46.89994214 55.12695312 50.24780273 C55.14213486 52.13384216 55.14213486 52.13384216 55.15762329 54.0579834 C55.14186249 55.22599487 55.12610168 56.39400635 55.10986328 57.59741211 C55.10389633 59.1381842 55.10389633 59.1381842 55.09780884 60.71008301 C54.46289062 63.40405273 54.46289062 63.40405273 52.2752533 65.73461914 C49.13298757 67.59988496 47.44035791 67.90976739 43.81811523 67.92163086 C42.71024155 67.9342395 41.60236786 67.94684814 40.46092224 67.95983887 C38.68105675 67.94769348 38.68105675 67.94769348 36.86523438 67.93530273 C35.63881729 67.93912964 34.41240021 67.94295654 33.14881897 67.94689941 C30.55908384 67.94961876 27.96932126 67.94225615 25.37963867 67.92553711 C21.41132565 67.90411177 17.44481954 67.92534988 13.4765625 67.95092773 C10.96028246 67.94828482 8.44400354 67.94316062 5.92773438 67.93530273 C4.14483253 67.94744812 4.14483253 67.94744812 2.32591248 67.95983887 C1.22119095 67.94723022 0.11646942 67.93462158 -1.02172852 67.92163086 C-1.99259903 67.91844849 -2.96346954 67.91526611 -3.96376038 67.9119873 C-7.36195361 67.24124275 -8.51862767 66.19790967 -10.53710938 63.40405273 C-11.05177307 60.66539001 -11.05177307 60.66539001 -11.07055664 57.48974609 C-11.08639297 56.29848618 -11.10222931 55.10722626 -11.11854553 53.87986755 C-11.11358566 52.5974971 -11.10862579 51.31512665 -11.10351562 49.99389648 C-11.1097142 48.6749086 -11.11591278 47.35592072 -11.12229919 45.9969635 C-11.13269607 43.20857257 -11.12815153 40.42069222 -11.11352539 37.63232422 C-11.09631311 34.05838312 -11.11986287 30.48604607 -11.15501499 26.9122839 C-11.18224327 23.5018922 -11.17225673 20.09189203 -11.16601562 16.68139648 C-11.17927383 15.3970018 -11.19253204 14.11260712 -11.20619202 12.78929138 C-11.19365891 11.60118362 -11.18112579 10.41307587 -11.16821289 9.18896484 C-11.16725113 8.14179794 -11.16628937 7.09463104 -11.16529846 6.01573181 C-10.53710938 3.40405273 -10.53710938 3.40405273 -8.34373474 1.56774902 C-5.33092644 0.31856419 -3.24928444 0.01846263 0 0 Z " fill="#0F1010" transform="translate(134.537109375,303.595947265625)"/>
<path d="M0 0 C1.16808701 -0.01260864 2.33617401 -0.02521729 3.53965759 -0.03820801 C4.8021785 -0.03011108 6.0646994 -0.02201416 7.36547852 -0.01367188 C8.66131363 -0.01749878 9.95714874 -0.02132568 11.29225159 -0.02526855 C14.03536035 -0.03116507 16.77794795 -0.02259827 19.52099609 -0.00390625 C23.03304096 0.01886227 26.54386172 0.00577664 30.05586147 -0.01819611 C33.40916453 -0.03615031 36.76214069 -0.02356776 40.11547852 -0.01367188 C41.37597519 -0.0217688 42.63647186 -0.02986572 43.93516541 -0.03820801 C45.10640457 -0.02559937 46.27764374 -0.01299072 47.484375 0 C48.5145726 0.00318237 49.5447702 0.00636475 50.60618591 0.00964355 C54.08522759 0.66396514 55.24898342 1.6600694 57.30688477 4.51757812 C57.82154846 7.12889099 57.82154846 7.12889099 57.84033203 10.12475586 C57.85616837 11.24949814 57.8720047 12.37424042 57.88832092 13.5330658 C57.88336105 14.7435408 57.87840118 15.95401581 57.87329102 17.20117188 C57.87948959 18.44882828 57.88568817 19.69648468 57.89207458 20.98194885 C57.89918031 23.621103 57.89793 26.25873445 57.88330078 28.89770508 C57.8661226 32.27194778 57.88959519 35.64448601 57.92479038 39.01853848 C57.95209186 42.24610292 57.94202589 45.47352455 57.93579102 48.70117188 C57.94904922 49.90962265 57.96230743 51.11807343 57.97596741 52.36314392 C57.92268084 57.15857145 57.84310995 60.53448638 55.52539062 64.78369141 C50.51139857 67.48484983 45.78898447 67.17226768 40.18188477 67.07617188 C38.41240479 67.07267479 38.41240479 67.07267479 36.60717773 67.06910706 C34.11573037 67.05937355 31.62430503 67.03759595 29.13305664 67.00463867 C25.32087408 66.95525933 21.50998319 66.94315868 17.69750977 66.9375 C15.27562105 66.9234125 12.85374353 66.90720756 10.43188477 66.88867188 C9.29219238 66.88330917 8.1525 66.87794647 6.97827148 66.87242126 C5.91366699 66.85643387 4.8490625 66.84044647 3.75219727 66.82397461 C2.35251709 66.80801491 2.35251709 66.80801491 0.92456055 66.79173279 C-1.97803522 66.48773786 -4.0961174 65.84564988 -6.69311523 64.51757812 C-8.9463639 61.13770513 -8.94941389 59.96844173 -8.96777344 56.00805664 C-8.97730545 54.88001114 -8.98683746 53.75196564 -8.99665833 52.58973694 C-8.99574692 51.37096359 -8.99483551 50.15219025 -8.99389648 48.89648438 C-8.99818161 47.64504135 -9.00246674 46.39359833 -9.00688171 45.10423279 C-9.01262972 42.4553324 -9.0140551 39.80682108 -9.00878906 37.15795898 C-9.00299584 33.76719323 -9.01992243 30.37697397 -9.04313374 26.98629856 C-9.06142793 23.74803122 -9.05768546 20.50979409 -9.05639648 17.27148438 C-9.06560623 16.05473526 -9.07481598 14.83798615 -9.08430481 13.58436584 C-9.07807602 12.45316818 -9.07184723 11.32197052 -9.06542969 10.15649414 C-9.06605911 9.16182632 -9.06668854 8.16715851 -9.06733704 7.14234924 C-8.22940896 1.26516781 -5.64725753 0.01745837 0 0 Z " fill="#101010" transform="translate(319.693115234375,130.482421875)"/>
<path d="M0 0 C1.75697205 -0.01418472 1.75697205 -0.01418472 3.54943848 -0.02865601 C5.44792542 -0.01954697 5.44792542 -0.01954697 7.38476562 -0.01025391 C8.68297241 -0.01312408 9.9811792 -0.01599426 11.31872559 -0.01895142 C14.06594553 -0.02337316 16.8128727 -0.016949 19.56005859 -0.00292969 C23.08098403 0.01416268 26.60122345 0.00432061 30.12212372 -0.01364708 C33.48055934 -0.02709598 36.83881051 -0.01767904 40.19726562 -0.01025391 C41.46292358 -0.0163266 42.72858154 -0.02239929 44.03259277 -0.02865601 C45.20390747 -0.01919952 46.37522217 -0.00974304 47.58203125 0 C49.13065857 0.00358017 49.13065857 0.00358017 50.71057129 0.00723267 C53.29101562 0.38818359 53.29101562 0.38818359 55.1245575 1.56137085 C56.75628046 4.11684389 56.66520528 5.9824788 56.66333008 9.00537109 C56.67267326 10.73231201 56.67267326 10.73231201 56.6822052 12.49414062 C56.67299545 13.7379248 56.66378571 14.98170898 56.65429688 16.26318359 C56.65504463 18.17719971 56.65504463 18.17719971 56.6558075 20.12988281 C56.65346488 22.8302211 56.64529867 25.52977789 56.62719727 28.22998047 C56.6045099 31.69026225 56.60396634 35.15010743 56.61071491 38.61044312 C56.61486069 41.9113895 56.60288211 45.2122584 56.59179688 48.51318359 C56.59270828 49.75696777 56.59361969 51.00075195 56.59455872 52.28222656 C56.5850267 53.43352051 56.57549469 54.58481445 56.56567383 55.77099609 C56.55876274 57.29297607 56.55876274 57.29297607 56.55171204 58.84570312 C56.29101562 61.38818359 56.29101562 61.38818359 54.29101562 64.38818359 C53.63101563 64.38818359 52.97101563 64.38818359 52.29101562 64.38818359 C52.29101562 65.04818359 52.29101562 65.70818359 52.29101562 66.38818359 C44.92833466 66.48091893 37.5657799 66.55196595 30.2026329 66.59543228 C26.78347882 66.6162956 23.36472468 66.64458865 19.94580078 66.68994141 C16.01404632 66.74176977 12.08245305 66.76113937 8.15039062 66.77880859 C6.31115021 66.80977631 6.31115021 66.80977631 4.43475342 66.84136963 C3.29387268 66.84167175 2.15299194 66.84197388 0.97753906 66.84228516 C-0.02617737 66.8511676 -1.0298938 66.86005005 -2.06402588 66.86920166 C-5.524452 66.23988083 -6.66928085 65.23062054 -8.70898438 62.38818359 C-9.21018982 59.68748474 -9.21018982 59.68748474 -9.21069336 56.56567383 C-9.22007431 55.39443466 -9.22945526 54.2231955 -9.23912048 53.01646423 C-9.22788651 51.75596756 -9.21665253 50.49547089 -9.20507812 49.19677734 C-9.20653336 47.8999855 -9.20798859 46.60319366 -9.20948792 45.2671051 C-9.21087071 42.52576346 -9.19833345 39.78494579 -9.17553711 37.04370117 C-9.14712369 33.53062059 -9.14989846 30.01840848 -9.16262722 26.50526333 C-9.17125399 23.15234353 -9.15614114 19.79968247 -9.14257812 16.44677734 C-9.14551376 15.18425644 -9.1484494 13.92173553 -9.151474 12.62095642 C-9.13878983 11.45286942 -9.12610565 10.28478241 -9.11303711 9.08129883 C-9.10763412 8.05189682 -9.10223114 7.02249481 -9.09666443 5.9618988 C-8.70898438 3.38818359 -8.70898438 3.38818359 -7.5405426 1.55662537 C-4.96179661 -0.08848452 -3.04924664 0.00704935 0 0 Z " fill="#101010" transform="translate(132.708984375,130.61181640625)"/>
<path d="M0 0 C0.66 0.33 1.32 0.66 2 1 C-0.64 3.64 -3.28 6.28 -6 9 C-6 6 -6 6 -3.5625 3.375 C-2.716875 2.59125 -1.87125 1.8075 -1 1 C-0.67 0.67 -0.34 0.34 0 0 Z " fill="#D7D7D7" transform="translate(305,291)"/>
</svg>
